<svg width="66" height="49" viewBox="0 0 66 49" fill="none" xmlns="http://www.w3.org/2000/svg">
<mask id="path-1-outside-1_228_581" maskUnits="userSpaceOnUse" x="39.5052" y="0" width="27" height="49" fill="black">
<rect fill="white" x="39.5052" width="27" height="49"/>
<path d="M41.5052 2L63.9999 24.5L41.5052 47"/>
</mask>
<path d="M42.9196 0.585953C42.1387 -0.195188 40.8723 -0.195337 40.0912 0.58562C39.3101 1.36658 39.3099 2.63291 40.0909 3.41405L42.9196 0.585953ZM63.9999 24.5L65.4143 25.914C66.1952 25.133 66.1952 23.867 65.4143 23.086L63.9999 24.5ZM40.0909 45.586C39.3099 46.3671 39.3101 47.6334 40.0912 48.4144C40.8723 49.1953 42.1387 49.1952 42.9196 48.414L40.0909 45.586ZM40.0909 3.41405L62.5856 25.914L65.4143 23.086L42.9196 0.585953L40.0909 3.41405ZM62.5856 23.086L40.0909 45.586L42.9196 48.414L65.4143 25.914L62.5856 23.086Z" fill="#2A2A2A" mask="url(#path-1-outside-1_228_581)"/>
<path d="M1 24.5H63.37" stroke="#2A2A2A" stroke-width="2" stroke-miterlimit="10" stroke-linecap="round" stroke-linejoin="round"/>
</svg>
