<svg width="30" height="30" viewBox="0 0 30 30" fill="none" xmlns="http://www.w3.org/2000/svg">
<path d="M14.0697 1.35872C14.4027 0.514571 15.5973 0.514571 15.9303 1.35872L19.3661 10.0705C19.4678 10.3282 19.6718 10.5322 19.9295 10.6339L28.6413 14.0697C29.4854 14.4027 29.4854 15.5973 28.6413 15.9303L19.9295 19.3661C19.6718 19.4678 19.4678 19.6718 19.3661 19.9295L15.9303 28.6413C15.5973 29.4854 14.4027 29.4854 14.0697 28.6413L10.6339 19.9295C10.5322 19.6718 10.3282 19.4678 10.0705 19.3661L1.35872 15.9303C0.514571 15.5973 0.514571 14.4027 1.35872 14.0697L10.0705 10.6339C10.3282 10.5322 10.5322 10.3282 10.6339 10.0705L14.0697 1.35872Z" fill="#2A2A2A"/>
</svg>
